Coordinates
version=1
nRows=11
nColumns=63
inDegrees=yes

Units are S.I. units (second, meters, Newtons, ...)
If the header above contains a line with 'inDegrees', this indicates whether rotational values are in degrees (yes) or radians (no).

endheader
time	pelvis_tilt	pelvis_list	pelvis_rotation	pelvis_tx	pelvis_ty	pelvis_tz	hip_flexion_r	hip_adduction_r	hip_rotation_r	knee_angle_r	knee_angle_r_beta	ankle_angle_r	subtalar_angle_r	mtp_angle_r	hip_flexion_l	hip_adduction_l	hip_rotation_l	knee_angle_l	knee_angle_l_beta	ankle_angle_l	subtalar_angle_l	mtp_angle_l	L5_S1_Flex_Ext	L5_S1_Lat_Bending	L5_S1_axial_rotation	L4_L5_Flex_Ext	L4_L5_Lat_Bending	L4_L5_axial_rotation	L3_L4_Flex_Ext	L3_L4_Lat_Bending	L3_L4_axial_rotation	L2_L3_Flex_Ext	L2_L3_Lat_Bending	L2_L3_axial_rotation	L1_L2_Flex_Ext	L1_L2_Lat_Bending	L1_L2_axial_rotation	L1_T12_Flex_Ext	L1_T12_Lat_Bending	L1_T12_axial_rotation	Abs_r3	Abs_r2	Abs_r1	Abs_t1	Abs_t2	neck_flexion	neck_bending	neck_rotation	arm_flex_r	arm_add_r	arm_rot_r	elbow_flex_r	pro_sup_r	wrist_flex_r	wrist_dev_r	arm_flex_l	arm_add_l	arm_rot_l	elbow_flex_l	pro_sup_l	wrist_flex_l	wrist_dev_l
      3.83333333	     -0.21295040	     10.85464600	   -100.14000682	     -0.01212946	      0.86732801	      0.16949072	      7.93878334	     -1.93327043	      2.24370523	      2.32815128	      0.04063391	      3.62915596	     10.70722274	      0.00000000	      3.91234771	     -3.66221247	    -17.39211801	      0.67072687	      0.01170639	      3.85323968	      1.18777873	      0.00000000	      0.01606200	      0.27320467	      0.09768698	      0.02982873	      0.36336222	      0.10379241	      0.02638825	      0.66426984	      0.10379241	      0.01835725	      0.66426984	      0.08547611	      0.01491517	      0.55711897	      0.07937067	      0.00917782	      0.42319404	      0.07326523	      0.11472923	      3.09054591	      0.54330566	      0.00000000	      0.00000000	      0.00000000	      0.00000000	      0.00000000	     -8.74523521	    -11.11276311	     -1.22360994	     37.92826110	     89.99559364	      0.00000000	      0.00000000	     -7.74726592	     -6.84291061	    -16.20130771	     37.07189777	     89.99559364	      0.00000000	      0.00000000
      3.86666667	      0.09244460	     11.73026467	   -100.91018915	     -0.01300509	      0.86695282	      0.16634271	      9.66279593	     -1.91852341	      2.67254591	      3.29686797	      0.05754120	      3.68538418	     10.97004933	      0.00000000	      5.05357632	     -3.58571271	    -18.24492839	      0.93889319	      0.01638678	      4.00646241	      0.69228871	      0.00000000	      0.01709489	      0.25099455	      0.17575079	      0.03174691	      0.33382275	      0.18673521	      0.02808519	      0.61026815	      0.18673521	      0.01953775	      0.61026815	      0.15378194	      0.01587431	      0.51182808	      0.14279751	      0.00976802	      0.38879056	      0.13181309	      0.12210706	      2.83930054	      0.97747314	      0.00000000	      0.00000000	      0.00000000	      0.00000000	      0.00000000	     -8.30132719	    -11.24193113	     -1.03134968	     38.51269217	     89.99559364	      0.00000000	      0.00000000	     -7.44545877	     -7.05028701	    -16.22348418	     37.86063038	     89.99559364	      0.00000000	      0.00000000
      3.90000000	      0.56377662	     12.92340013	   -102.27361609	     -0.01534831	      0.86602262	      0.16178752	     12.30926073	     -1.76895698	      3.38245914	      5.21825613	      0.09107575	      4.37521748	     11.14862388	      0.00000000	      6.86546468	     -3.73237525	    -19.33709060	      1.85278442	      0.03233719	      4.64612108	      0.02398854	      0.00000000	      0.01720718	      0.20393269	      0.32043069	      0.03195546	      0.27123048	      0.34045761	      0.02826968	      0.49584195	      0.34045761	      0.01966609	      0.49584195	      0.28037685	      0.01597859	      0.41585954	      0.26034993	      0.00983218	      0.31589174	      0.24032302	      0.12290918	      2.30692739	      1.78213936	      0.00000000	      0.00000000	      0.00000000	      0.00000000	      0.00000000	     -7.73242556	    -11.25201581	     -0.56907887	     39.91859104	     89.99559364	      0.00000000	      0.00000000	     -8.19142819	     -7.35578714	    -16.05492104	     38.29124729	     89.99559364	      0.00000000	      0.00000000
      3.93333333	      0.89855407	     14.67453607	   -103.29673818	     -0.01824408	      0.86408975	      0.15468205	     15.94443156	     -1.19373554	      3.43054152	      7.82537365	      0.13657854	      4.80467529	     10.55603329	      0.00000000	     10.04975871	     -4.55862353	    -20.26702923	      3.98829272	      0.06960884	      5.38290375	     -0.63956269	      0.00000000	      0.01786155	      0.16455546	      0.43180664	      0.03317069	      0.21885876	      0.45879455	      0.02934475	      0.40010014	      0.45879455	      0.02041397	      0.40010014	      0.37783081	      0.01658624	      0.33556149	      0.35084289	      0.01020609	      0.25489640	      0.32385498	      0.12758329	      1.86148423	      2.40157898	      0.00000000	      0.00000000	      0.00000000	      0.00000000	      0.00000000	     -7.25321730	    -11.08983051	     -0.56460874	     42.19289160	     89.99559364	      0.00000000	      0.00000000	     -9.18430194	     -7.69246897	    -15.75858756	     38.40671494	     89.99559364	      0.00000000	      0.00000000
      3.96666667	      1.04844247	     17.26903156	   -103.85181293	     -0.02088707	      0.86000528	      0.14390802	     21.18032515	     -0.19092006	      3.07561856	     11.65454141	      0.20341012	      5.18057805	      9.02640592	      0.00000000	     14.96435724	     -6.09457139	    -21.17371667	      7.40825467	      0.12929844	      6.24009138	     -1.57917795	      0.00000000	      0.01767616	      0.14611262	      0.52793163	      0.03282639	      0.19432979	      0.56092735	      0.02904016	      0.35525823	      0.56092735	      0.02020208	      0.35525823	      0.46194017	      0.01641408	      0.29795286	      0.42894445	      0.01010016	      0.22632845	      0.39594872	      0.12625903	      1.65285521	      2.93619733	      0.00000000	      0.00000000	      0.00000000	      0.00000000	      0.00000000	     -6.89141834	    -11.03581832	     -0.55888734	     45.00608514	     89.99559364	      0.00000000	      0.00000000	     -9.41282249	     -8.20178763	    -15.82667639	     39.97994521	     89.99559364	      0.00000000	      0.00000000
      4.00000000	      1.00205524	     20.92840979	   -103.74450559	     -0.02244344	      0.85060502	      0.12910396	     28.30765812	      1.67746468	      7.22098217	     16.88444159	      0.29468910	      5.29884304	      0.87542204	      0.00000000	     22.40201167	     -8.40276204	    -20.54974758	     13.27822398	      0.23174873	      8.50905280	     -3.45213730	      0.00000000	      0.01770425	      0.16258666	      0.48954674	      0.03287856	      0.21624026	      0.52014341	      0.02908631	      0.39531321	      0.52014341	      0.02023419	      0.39531321	      0.42835339	      0.01644017	      0.33154672	      0.39775672	      0.01011621	      0.25184674	      0.36716005	      0.12645968	      1.83921285	      2.72271208	      0.00000000	      0.00000000	      0.00000000	      0.00000000	      0.00000000	     -6.11306782	    -11.47964193	      0.16576073	     48.12575285	     89.99559364	      0.00000000	      0.00000000	     -8.87536703	     -8.49448374	    -18.49394245	     45.24904179	     89.99559364	      0.00000000	      0.00000000
      4.03333333	      0.95093616	     25.34738962	   -103.40800763	     -0.02304187	      0.83296853	      0.11095810	     37.16705802	      3.49725254	      9.12945349	     23.65486752	      0.41285532	      6.81473567	     -4.05775751	      0.00000000	     32.15063274	    -11.04315471	    -18.63038431	     21.69411592	      0.37863375	     12.05463802	     -6.18563843	      0.00000000	      0.01429474	      0.20560615	      0.48195638	      0.02654675	      0.27345619	      0.51207866	      0.02348482	      0.49991081	      0.51207866	      0.01633745	      0.49991081	      0.42171184	      0.01327409	      0.41927207	      0.39158956	      0.00816801	      0.31848393	      0.36146729	      0.10210587	      2.32585795	      2.68049683	      0.00000000	      0.00000000	      0.00000000	      0.00000000	      0.00000000	     -4.64926612	    -12.08014457	      0.03754093	     50.63064227	     89.99559364	      0.00000000	      0.00000000	     -6.76707167	     -9.55034611	    -19.53285815	     50.74319121	     89.99559364	      0.00000000	      0.00000000
      4.06666667	      1.02644072	     30.04256034	   -102.75854931	     -0.02322147	      0.80602238	      0.09080267	     46.94937670	      4.86963724	      9.55666965	     31.39496022	      0.54794542	     10.18066466	     -6.98883291	      0.00000000	     43.28001535	    -13.42314920	    -16.03933549	     31.70163522	      0.55329791	     16.03846025	     -7.75351762	      0.00000000	      0.01044849	      0.21804696	      0.59312119	      0.01940390	      0.29000246	      0.63019126	      0.01716583	      0.53015939	      0.63019126	      0.01194158	      0.53015939	      0.51898104	      0.00970247	      0.44464137	      0.48191096	      0.00597027	      0.33775475	      0.44484089	      0.07463254	      2.46659086	      3.29876210	      0.00000000	      0.00000000	      0.00000000	      0.00000000	      0.00000000	     -2.74667664	    -12.35239401	     -1.86985736	     52.04924657	     89.99559364	      0.00000000	      0.00000000	     -3.56703144	    -11.04511489	    -18.70198204	     52.56674448	     89.99559364	      0.00000000	      0.00000000
      4.10000000	      1.55662230	     34.66816813	   -102.38258551	     -0.02332403	      0.77132850	      0.06945988	     57.33405758	      5.51950807	      8.73575981	     40.01293273	      0.69835742	     14.85002786	     -7.71669412	      0.00000000	     54.93899976	    -15.33799639	    -13.78056423	     42.53145767	      0.74231397	     19.44160991	     -7.95716018	      0.00000000	      0.00555423	      0.12213340	      0.87132959	      0.01031476	      0.16243742	      0.92578769	      0.00912505	      0.29695515	      0.92578769	      0.00634793	      0.29695515	      0.76241339	      0.00515766	      0.24905443	      0.70795529	      0.00317369	      0.18918464	      0.65349719	      0.03967333	      1.38159744	      4.84607377	      0.00000000	      0.00000000	      0.00000000	      0.00000000	      0.00000000	     -0.53843330	    -12.13517352	     -4.75573942	     52.00035539	     89.99559364	      0.00000000	      0.00000000	      0.04737586	    -12.60759962	    -15.69363235	     48.57201998	     89.99559364	      0.00000000	      0.00000000
      4.13333333	      2.68237657	     38.97324994	   -102.99176153	     -0.02367699	      0.73344715	      0.04898728	     67.62516120	      5.93929771	      7.90600064	     48.85791678	      0.85273151	     19.24466171	     -6.82756407	      0.00000000	     66.20417177	    -17.01367297	    -11.84343309	     53.22253784	      0.92890852	     21.92676445	     -7.89138596	      0.00000000	     -0.00019029	     -0.07414635	      1.18988736	     -0.00035339	     -0.09861465	      1.26425532	     -0.00031263	     -0.18027945	      1.26425532	     -0.00021748	     -0.18027945	      1.04115144	     -0.00017670	     -0.15119925	      0.96678348	     -0.00010873	     -0.11485270	      0.89241552	     -0.00135923	     -0.83875839	      6.61779652	      0.00000000	      0.00000000	      0.00000000	      0.00000000	      0.00000000	      2.33079982	    -11.67645369	     -6.60824431	     50.18726819	     89.99559364	      0.00000000	      0.00000000	      3.66707339	    -14.10450472	    -11.56640955	     40.86227925	     89.99559364	      0.00000000	      0.00000000
      4.16666667	      4.32345576	     42.80701375	   -104.53164599	     -0.02402937	      0.69774242	      0.03045693	     77.01061622	      6.42741529	      7.56658446	     56.82827390	      0.99184049	     22.28361525	     -4.93038691	      0.00000000	     76.25666081	    -18.27776995	     -9.86413508	     62.35645490	      1.08832545	     23.51274109	     -8.36138501	      0.00000000	     -0.00698577	     -0.29307122	      1.35601279	     -0.01297328	     -0.38978472	      1.44076359	     -0.01147693	     -0.71257336	      1.44076359	     -0.00798404	     -0.71257336	      1.18651119	     -0.00648699	     -0.59763083	      1.10176039	     -0.00399167	     -0.45396732	      1.01700959	     -0.04989868	     -3.31528026	      7.54173633	      0.00000000	      0.00000000	      0.00000000	      0.00000000	      0.00000000	      6.29113042	    -11.04202787	     -6.64818212	     46.55365959	     89.99559364	      0.00000000	      0.00000000	      6.60483891	    -15.52346829	     -8.01618648	     35.07260187	     89.99559364	      0.00000000	      0.00000000
